<?xml version="1.0" encoding="utf-8"?>
<svg width="29.74" height="36" viewBox="133 30 31.35 38" xmlns="http://www.w3.org/2000/svg">
  <g data-name="Shopping-E-commerce / Shopping-Bags / shopping-bag-smile" transform="matrix(1, 0, 0, 1, 0.805249, 0.995634)">
    <g data-name="Group 119">
      <g data-name="shopping-bag-smile" stroke-linejoin="round" stroke-linecap="round" stroke="#004373">
        <path d="M140.83 44.087v-7.044a7.044 7.044 0 0 1 14.088 0v7.044" data-name="Shape 942" style="fill: rgba(0, 0, 0, 0);"/>
        <path d="m162.69 61.304-1.408-20.348a1.677 1.677 0 0 0-1.673-1.565h-23.474c-.883 0-1.614.684-1.673 1.565l-1.409 20.348A22.726 22.726 0 0 0 133 62.87c0 1.729 1.4 3.13 3.13 3.13h23.479c1.73 0 3.13-1.401 3.13-3.13a20.913 20.913 0 0 0-.048-1.566z" data-name="Shape 943" style="fill: rgba(0, 0, 0, 0);"/>
      </g>
    </g>
  </g>
</svg>