<?xml version="1.0" encoding="utf-8"?>
<svg width="50px" height="54.705px" viewBox="448.256 143.242 108.729 67.048" xmlns="http://www.w3.org/2000/svg">
  <g data-name="Ecology / Clean-Cars / clean-car-cable-charge-1" transform="matrix(2.285157, 0, 0, 2.285157, -577.382324, -212.589249)">
    <g data-name="Group 72">
      <g data-name="Light 72" stroke-linejoin="round" stroke-linecap="round" stroke="#004373" fill="">
        <path d="M463.043 178.652h19.566" data-name="Shape 528" style="fill: rgba(0, 0, 0, 0);"/>
        <path d="M 476.087 156.901 C 475.977 156.901 466.391 156.917 466.283 156.925 C 465.5 156.983 464.769 157.25 464.15 157.674 C 463.24 158.298 462.572 159.263 462.343 160.409 L 461.57 164.287 C 461.163 166.32 459.377 167.783 457.304 167.782 L 454.348 167.782 C 451.946 167.781 449.999 169.728 450 172.13 L 450 176.478 C 450 177.678 450.974 178.652 452.174 178.652 L 454.348 178.652" data-name="Shape 529" style="fill: rgba(0, 0, 0, 0);"/>
        <path d="M 491.304 178.652 L 493.478 178.652 C 494.678 178.652 495.652 177.678 495.652 176.478 L 495.652 175.708 C 495.653 171.33 492.104 167.781 487.726 167.782 C 485.951 167.78 484.355 166.698 483.696 165.05 L 482.08 161.013 C 481.089 158.535 478.701 156.897 476.032 156.899" data-name="Shape 530" style="fill: rgba(0, 0, 0, 0);"/>
        <path d="M458.696 183a4.347 4.347 0 0 0 4.347-4.348 4.347 4.347 0 0 0-4.347-4.348 4.347 4.347 0 0 0-4.348 4.348 4.347 4.347 0 0 0 4.348 4.348z" data-name="Oval 12" style="fill: rgba(0, 0, 0, 0);"/>
        <path d="M486.957 183a4.347 4.347 0 0 0 4.347-4.348 4.347 4.347 0 0 0-4.347-4.348 4.347 4.347 0 0 0-4.348 4.348 4.347 4.347 0 0 0 4.348 4.348z" data-name="Oval 13" style="fill: rgba(0, 0, 0, 0);"/>
        <path d="M 471.74 163.435 C 471.74 163.438 471.81 152.998 471.724 159.598 C 471.713 160.405 471.733 161.643 471.74 163.444 C 471.75 165.841 473.689 167.782 476.087 167.782 L 487.727 167.782" data-name="Shape 531" style="fill: rgba(0, 0, 0, 0);"/>
      </g>
    </g>
  </g>
</svg>