<?xml version="1.0" encoding="utf-8"?>
<svg width="45.652" height="50" viewBox="450 133 47.528 52" xmlns="http://www.w3.org/2000/svg">
  <g data-name="Ecology / Clean-Cars / clean-car-cable-charge-1" transform="matrix(1, 0, 0, 1, 0.937996, 1)">
    <g data-name="Group 72">
      <g data-name="Light 72" stroke-linejoin="round" stroke-linecap="round" stroke="#004373" fill="">
        <path d="M463.043 178.652h19.566" data-name="Shape 528" style="fill: rgba(0, 0, 0, 0);"/>
        <path d="M466.609 156.913a4.349 4.349 0 0 0-4.266 3.496l-.773 3.878a4.349 4.349 0 0 1-4.266 3.495h-2.956A4.347 4.347 0 0 0 450 172.13v4.348c0 1.2.974 2.174 2.174 2.174h2.174" data-name="Shape 529" style="fill: rgba(0, 0, 0, 0);"/>
        <path d="M491.304 178.652h2.174c1.2 0 2.174-.974 2.174-2.174v-.77a7.925 7.925 0 0 0-7.926-7.926 4.346 4.346 0 0 1-4.03-2.732l-1.616-4.037a6.52 6.52 0 0 0-6.06-4.1" data-name="Shape 530" style="fill: rgba(0, 0, 0, 0);"/>
        <path d="M458.696 183a4.347 4.347 0 0 0 4.347-4.348 4.347 4.347 0 0 0-4.347-4.348 4.347 4.347 0 0 0-4.348 4.348 4.347 4.347 0 0 0 4.348 4.348z" data-name="Oval 12" style="fill: rgba(0, 0, 0, 0);"/>
        <path d="M486.957 183a4.347 4.347 0 0 0 4.347-4.348 4.347 4.347 0 0 0-4.347-4.348 4.347 4.347 0 0 0-4.348 4.348 4.347 4.347 0 0 0 4.348 4.348z" data-name="Oval 13" style="fill: rgba(0, 0, 0, 0);"/>
        <path d="M471.74 163.435a4.347 4.347 0 0 0 4.347 4.347h11.64" data-name="Shape 531" style="fill: rgba(0, 0, 0, 0);"/>
        <path d="M477.174 139.522a7.609 7.609 0 0 1-15.217 0c0-.29.115-.566.317-.77.204-.202.48-.317.77-.317h13.043c.6 0 1.087.487 1.087 1.087z" data-name="Shape 532" style="fill: rgba(0, 0, 0, 0);"/>
        <path d="M469.565 147.13v8.696c0 1.8 1.461 3.261 3.261 3.261" data-name="Shape 533" style="fill: rgba(0, 0, 0, 0);"/>
        <path d="M473.913 138.435V133" data-name="Shape 534" style="fill: rgba(0, 0, 0, 0);"/>
        <path d="M465.217 138.435V133" data-name="Shape 535" style="fill: rgba(0, 0, 0, 0);"/>
      </g>
    </g>
  </g>
</svg>