<?xml version="1.0" encoding="utf-8"?>
<svg width="36" height="34.56" viewBox="230 30.7 38 36.522" xmlns="http://www.w3.org/2000/svg">
  <g data-name="Family-Babies-Kids / Outdoor-Activities / family-outdoors-swing" transform="matrix(1, 0, 0, 1, 1, 0.980999)">
    <g data-name="Group 38">
      <g data-name="family-outdoors-swing" stroke-linejoin="round" stroke-linecap="round" stroke="#004373" fill="">
        <path d="m232.348 65.26 2.633-29.072c.281-3.105 2.99-5.49 6.237-5.488h13.043c3.248-.001 5.955 2.383 6.237 5.488l3.154 29.072" data-name="Shape 293" style="fill: rgba(0, 0, 0, 0);"/>
        <path d="M230 65.26h4.696" data-name="Shape 294" style="fill: rgba(0, 0, 0, 0);"/>
        <path d="M261.304 65.26H266" data-name="Shape 295" style="fill: rgba(0, 0, 0, 0);"/>
        <path d="M242.522 30.7v24.042" data-name="Shape 296" style="fill: rgba(0, 0, 0, 0);"/>
        <path d="M253.478 30.7v24.042" data-name="Shape 297" style="fill: rgba(0, 0, 0, 0);"/>
        <path d="M255.043 56.245c0 1.659-1.4 3.005-3.13 3.005h-7.826c-1.728 0-3.13-1.346-3.13-3.005 0-.831.7-1.503 1.565-1.503h10.956c.866 0 1.565.672 1.565 1.503z" data-name="Shape 298" style="fill: rgba(0, 0, 0, 0);"/>
      </g>
    </g>
  </g>
</svg>