<?xml version="1.0" encoding="utf-8"?>
<svg width="75.498" height="171" viewBox="-3.709 -2.147 81.355 175.88" xmlns="http://www.w3.org/2000/svg">
  <g id="Gruppe_457" data-name="Gruppe 457" transform="translate(-1059.961 -272.5)">
    <path id="Shape_965" data-name="Shape 965" d="M250.075,1030.9V931.429a14.692,14.692,0,1,0-29.384,0V1030.9a29.386,29.386,0,1,0,29.384,0Z" transform="translate(855 -643.237)" fill="none" stroke="blue" stroke-linecap="round" stroke-linejoin="round" style="stroke-width: 4px;"/>
    <path id="Oval_32" data-name="Oval 32" d="M216.346,949.429A7.346,7.346,0,1,0,209,942.083,7.344,7.344,0,0,0,216.346,949.429Z" transform="translate(874.038 -529.01)" fill="none" stroke="blue" stroke-linecap="round" stroke-linejoin="round" style="stroke-width: 4px;"/>
    <path id="Shape_966" data-name="Shape 966" d="M210,998.2V924.737" transform="translate(880.383 -592.47)" fill="none" stroke="blue" stroke-linecap="round" stroke-linejoin="round" style="stroke-width: 4px;"/>
    <path id="Shape_967" data-name="Shape 967" d="M214,929.737h14.692" transform="translate(905.767 -560.74)" fill="none" stroke="blue" stroke-linecap="round" stroke-linejoin="round" style="stroke-width: 4px;"/>
    <path id="Shape_968" data-name="Shape 968" d="M214,924.737h14.692" transform="translate(905.767 -592.47)" fill="none" stroke="blue" stroke-linecap="round" stroke-linejoin="round" style="stroke-width: 4px;"/>
    <path id="Shape_969" data-name="Shape 969" d="M214,919.737h14.692" transform="translate(905.767 -624.199)" fill="none" stroke="blue" stroke-linecap="round" stroke-linejoin="round" style="stroke-width: 4px;"/>
  </g>
</svg>