<?xml version="1.0" encoding="utf-8"?>
<svg width="43.519" height="50" viewBox="950 30.7 45.24 52" xmlns="http://www.w3.org/2000/svg">
  <g data-name="Interface-Essential / Filter / filter-1" transform="matrix(1, 0, 0, 1, 0.860448, 0.999734)">
    <g data-name="Group 210">
      <g data-name="filter-1">
        <path d="M993.085 34.179c.493-.659.574-1.54.204-2.277a2.17 2.17 0 0 0-1.943-1.202h-39.172a2.17 2.17 0 0 0-1.944 1.202 2.17 2.17 0 0 0 .205 2.277l16.974 22.806v21.542a2.17 2.17 0 0 0 1.202 1.943 2.17 2.17 0 0 0 2.276-.204l4.348-3.261c.548-.41.87-1.054.87-1.74V56.984l16.98-22.804z" stroke-linejoin="round" stroke-linecap="round" stroke="#004373" data-name="Shape 1078" style="fill: rgba(0, 0, 0, 0);"/>
      </g>
    </g>
  </g>
</svg>