<?xml version="1.0" encoding="utf-8"?>
<svg width="41.31" height="50" viewBox="223 134 42.952 52" xmlns="http://www.w3.org/2000/svg">
  <g data-name="Sports / Athletics / athletics-team-running" transform="matrix(1, 0, 0, 1, 0.792879, 1.000023)">
    <g data-name="Group 139">
      <g data-name="Light 139" stroke-linejoin="round" stroke-linecap="round" stroke="#004373" fill="">
        <path d="M248.003 144.871a5.435 5.435 0 0 0 5.436-5.435 5.435 5.435 0 0 0-5.436-5.436 5.435 5.435 0 0 0-5.435 5.436 5.435 5.435 0 0 0 5.435 5.435z" data-name="Oval 133" style="fill: rgba(0, 0, 0, 0);"/>
        <path d="M263.088 147.67a3.263 3.263 0 0 0-4.583.506l-1.427 1.78a3.244 3.244 0 0 1-3.66 1.027l-15.22-5.532a9.815 9.815 0 0 0-10.852 2.935l-2.498 3.001a3.261 3.261 0 1 0 5 4.175l2.508-3.001a3.276 3.276 0 0 1 3.62-.976l3.641 1.324-4.09 11.467a3.26 3.26 0 0 1-3.093 2.23h-6.173a3.262 3.262 0 0 0 0 6.523h6.173a9.766 9.766 0 0 0 8.801-5.5l2.444.978a3.275 3.275 0 0 1 1.957 3.818l-1.881 7.523a3.26 3.26 0 0 0 3.166 4.052 3.258 3.258 0 0 0 3.16-2.47l1.88-7.531a9.821 9.821 0 0 0-5.86-11.456l-2.624-1.048 2.27-6.366 5.435 1.976a9.782 9.782 0 0 0 10.984-3.08l1.426-1.768a3.256 3.256 0 0 0 .698-2.399 3.254 3.254 0 0 0-1.202-2.189z" data-name="Shape 783" style="fill: rgba(0, 0, 0, 0);"/>
      </g>
    </g>
  </g>
</svg>