<?xml version="1.0" encoding="utf-8"?>
<svg width="50" height="47.813" viewBox="571 220.2 52 49.712" xmlns="http://www.w3.org/2000/svg">
  <g data-name="Interface-Essential / Help / headphones-customer-support" transform="matrix(1, 0, 0, 1, 0.965454, 0.963494)">
    <g data-name="Group 218">
      <g data-name="headphones-customer-support" stroke-linejoin="round" stroke-linecap="round" stroke="#004373" fill="">
        <path d="M604.728 265.826h2.173c4.203 0 7.607-2.32 7.607-6.52v-4.716" data-name="Shape 1117" style="fill: rgba(0, 0, 0, 0);"/>
        <path d="M612.334 237.573a8.694 8.694 0 0 1 2.9 16.89 2.173 2.173 0 0 1-2.9-2.046v-14.844z" data-name="Shape 1118" style="fill: rgba(0, 0, 0, 0);"/>
        <path d="M579.735 237.573a8.694 8.694 0 0 0-2.9 16.89 2.173 2.173 0 0 0 2.9-2.046v-14.844z" data-name="Shape 1119" style="fill: rgba(0, 0, 0, 0);"/>
        <path d="M612.334 240.833v-4.347c0-9.002-7.298-16.3-16.3-16.3-9.001 0-16.3 7.298-16.3 16.3v4.347" data-name="Shape 1120" style="fill: rgba(0, 0, 0, 0);"/>
        <path d="M594.948 263.653h8.693c.6 0 1.087.486 1.087 1.086v2.173c0 .6-.487 1.087-1.087 1.087h-8.693c-1.2 0-2.173-.973-2.173-2.173h0c0-1.2.973-2.173 2.173-2.173z" data-name="Shape 1121" style="fill: rgba(0, 0, 0, 0);"/>
      </g>
    </g>
  </g>
</svg>