<svg xmlns="http://www.w3.org/2000/svg" width="61.5" height="61.5" viewBox="0 0 61.5 61.5"><g id="Weather_UV_uv-low-1" data-name="Weather / UV / uv-low-1" transform="translate(-246.75 -1015.987)"><g id="Group_124" data-name="Group 124" transform="translate(247.5 1016.737)"><g id="Light_124" data-name="Light 124"><path id="Shape_1029" data-name="Shape 1029" d="M272.317,1017.108a2.6,2.6,0,0,0-1.338-.371h-20.87a2.61, 2.61,0,0,0-2.609,2.609v54.783a2.608,2.608,0,0,0,2.609, 2.609h20.87a2.608,2.608,0,0,0,2.609-2.609v-20.87" transform="translate(-247.5 -1016.737)" fill="none" stroke="blue" stroke-linecap="round" stroke-linejoin="round" stroke-width="1.5"></path><path id="Oval_42" data-name="Oval 42" d="M274.761,1053.259A18.261,18.261,0,1,0,256.5,1035,18.261,18.261,0,0,0,274.761,1053.259Z" transform="translate(-233.022 -1016.737)" fill="none" stroke="blue" stroke-linecap="round" stroke-linejoin="round" stroke-width="1.5"></path><path id="Shape_1030" data-name="Shape 1030" d="M267.326,1021.237v11.74a3.913,3.913,0,0,1-7.826,0v-11.74" transform="translate(-228.196 -1009.498)" fill="none" stroke="blue" stroke-linecap="round" stroke-linejoin="round" stroke-width="1.5"></path><path id="Shape_1031" data-name="Shape 1031" d="M272.326,1021.237v3.913a19.557,19.557,0,0,1-3.913,11.739,19.558,19.558,0,0,1-3.913-11.739v-3.913" transform="translate(-220.152 -1009.498)" fill="none" stroke="blue" stroke-linecap="round" stroke-linejoin="round" stroke-width="1.5"></path><path id="Shape_1032" data-name="Shape 1032" d="M249.5,1036.737h15.652" transform="translate(-244.283 -984.563)" fill="none" stroke="blue" stroke-linecap="round" stroke-linejoin="round" stroke-width="1.5"></path></g></g></g></svg>
