<svg xmlns="http://www.w3.org/2000/svg" width="61.652" height="56.35" viewBox="0 0 61.652 56.35"><g id="Weather_Wind_wind-cloud" data-name="Weather / Wind / wind-cloud" transform="translate(-198.613 -1216.971)"><g id="Group_135" data-name="Group 135" transform="translate(199.5 1217.737)"><g id="Light_135" data-name="Light 135"><path id="Shape_1124" data-name="Shape 1124" d="M247.761,1262.127a11.781,11.781,0,0,0,6.016-21.884, 9.133,9.133,0,0,0-9.519-12.068,15.652,15.652,0,0,0-30.41, 5.178,14.395,14.395,0,0,0-12.809,20.87" transform="translate(-199.5 -1217.737)" fill="none" stroke="blue" stroke-linecap="round" stroke-linejoin="round" stroke-width="1.5"></path><path id="Shape_1125" data-name="Shape 1125" d="M199.5,1237.779h23.478c5.217,0,5.217-6.522,0-6.522" transform="translate(-199.5 -1195.988)" fill="none" stroke="blue" stroke-linecap="round" stroke-linejoin="round" stroke-width="1.5"></path><path id="Shape_1126" data-name="Shape 1126" d="M199.5,1235.757h33.913c6.522,0,6.522,7.826,0,7.826" transform="translate(-199.5 -1188.749)" fill="none" stroke="blue" stroke-linecap="round" stroke-linejoin="round" stroke-width="1.5"></path></g></g></g></svg>
