<?xml version="1.0" encoding="utf-8"?>
<svg width="50" height="50" viewBox="667 135.1 52 52" xmlns="http://www.w3.org/2000/svg">
  <g data-name="Outdoors-Recreation / Outdoor-Parks / outdoors-kite-flying-cloud" transform="matrix(1.000002, 0, 0, 1, 0.964601, 1.044733)">
    <g data-name="Group 79">
      <g data-name="Light 79" stroke-linejoin="round" stroke-linecap="round" stroke="#004373" fill="">
        <path d="M699.817 170.551a1.085 1.085 0 0 0 1.63-.806l2.12-17.744a1.09 1.09 0 0 0-.785-1.176l-12.767-3.604a1.088 1.088 0 0 0-1.304.652l-4.692 12.317a1.084 1.084 0 0 0 .463 1.322l15.335 9.04z" data-name="Shape 513" style="fill: rgba(0, 0, 0, 0);"/>
        <path d="m683.995 160.894 19.372-9.66" data-name="Shape 514" style="fill: rgba(0, 0, 0, 0);"/>
        <path d="m700.847 170.59-11.617-23.293" data-name="Shape 515" style="fill: rgba(0, 0, 0, 0);"/>
        <path d="m700.847 170.59-2.036 3.194" data-name="Shape 516" style="fill: rgba(0, 0, 0, 0);"/>
        <path d="m700.847 170.59 3.777.294" data-name="Shape 517" style="fill: rgba(0, 0, 0, 0);"/>
        <path d="m700.847 170.59 4.679 8.183a2.98 2.98 0 0 0 4.443.848 2.975 2.975 0 0 1 4.444.845l2.621 4.59" data-name="Shape 518" style="fill: rgba(0, 0, 0, 0);"/>
        <path d="M695.793 144.538a6.223 6.223 0 0 0-6.235-4.55 8.657 8.657 0 0 0-7.878-4.933 8.953 8.953 0 0 0-9.006 8.137 4.68 4.68 0 0 0-5.64 4.576 4.73 4.73 0 0 0 1.496 3.403 4.725 4.725 0 0 0 3.491 1.276h10.23" data-name="Shape 519" style="fill: rgba(0, 0, 0, 0);"/>
      </g>
    </g>
  </g>
</svg>